<mxfile host="app.diagrams.net" modified="2020-09-01T18:51:56.202Z" agent="5.0 (Macintosh; Intel Mac OS X 10_14_6) AppleWebKit/605.1.15 (KHTML, like Gecko) Version/13.1.1 Safari/605.1.15" etag="M7YUk0IsbIkZ1yd6_v7T" version="13.6.5" type="github" pages="6">
  <diagram id="y549nrKQ-lLqLkLc4ka6" name="Front Page">
    <mxGraphModel dx="1714" dy="1024" grid="1" gridSize="10" guides="1" tooltips="1" connect="1" arrows="1" fold="1" page="1" pageScale="1" pageWidth="850" pageHeight="1100" math="0" shadow="0">
      <root>
        <mxCell id="0" />
        <mxCell id="1" parent="0" />
        <mxCell id="_cZrSs8jWnKON0rCT3g9-2" value="" style="rounded=0;whiteSpace=wrap;html=1;sketch=0;" parent="1" vertex="1">
          <mxGeometry x="50" y="1020" width="760" height="60" as="geometry" />
        </mxCell>
        <mxCell id="_cZrSs8jWnKON0rCT3g9-3" value="" style="rounded=0;whiteSpace=wrap;html=1;sketch=0;" parent="1" vertex="1">
          <mxGeometry x="50" y="30" width="760" height="60" as="geometry" />
        </mxCell>
        <mxCell id="_cZrSs8jWnKON0rCT3g9-4" value="&lt;font style=&quot;font-size: 15px&quot;&gt;LOGO&lt;/font&gt;" style="text;html=1;strokeColor=none;fillColor=none;align=center;verticalAlign=middle;whiteSpace=wrap;rounded=0;sketch=0;" parent="1" vertex="1">
          <mxGeometry x="60" y="35" width="60" height="50" as="geometry" />
        </mxCell>
        <mxCell id="_cZrSs8jWnKON0rCT3g9-14" value="&lt;font style=&quot;font-size: 15px&quot;&gt;LinkedIn&lt;/font&gt;" style="text;html=1;strokeColor=none;fillColor=none;align=center;verticalAlign=middle;whiteSpace=wrap;rounded=0;sketch=0;" parent="1" vertex="1">
          <mxGeometry x="323" y="1022.5" width="70" height="55" as="geometry" />
        </mxCell>
        <mxCell id="_cZrSs8jWnKON0rCT3g9-18" value="" style="shape=ext;double=1;rounded=0;whiteSpace=wrap;html=1;sketch=0;" parent="1" vertex="1">
          <mxGeometry x="200" y="270" width="480" height="200" as="geometry" />
        </mxCell>
        <mxCell id="_cZrSs8jWnKON0rCT3g9-19" value="" style="rounded=0;whiteSpace=wrap;html=1;sketch=0;" parent="1" vertex="1">
          <mxGeometry x="230" y="510" width="420" height="140" as="geometry" />
        </mxCell>
        <mxCell id="_cZrSs8jWnKON0rCT3g9-23" value="&lt;font style=&quot;font-size: 37px&quot;&gt;Header: name&lt;/font&gt;" style="text;strokeColor=none;fillColor=none;html=1;fontSize=24;fontStyle=1;verticalAlign=middle;align=center;rounded=0;sketch=0;" parent="1" vertex="1">
          <mxGeometry x="317.5" y="312.5" width="225" height="95" as="geometry" />
        </mxCell>
        <mxCell id="_cZrSs8jWnKON0rCT3g9-24" value="&lt;font style=&quot;font-size: 15px&quot;&gt;GitHub&lt;/font&gt;" style="text;html=1;strokeColor=none;fillColor=none;align=center;verticalAlign=middle;whiteSpace=wrap;rounded=0;sketch=0;" parent="1" vertex="1">
          <mxGeometry x="393" y="1022.5" width="65" height="55" as="geometry" />
        </mxCell>
        <mxCell id="_cZrSs8jWnKON0rCT3g9-25" value="&lt;font style=&quot;font-size: 15px&quot;&gt;Email&lt;/font&gt;" style="text;html=1;strokeColor=none;fillColor=none;align=center;verticalAlign=middle;whiteSpace=wrap;rounded=0;sketch=0;" parent="1" vertex="1">
          <mxGeometry x="450" y="1022.5" width="70" height="55" as="geometry" />
        </mxCell>
        <mxCell id="_cZrSs8jWnKON0rCT3g9-26" value="&lt;font size=&quot;4&quot;&gt;Overview of skillset, what languages and frameworks experienced in.&amp;nbsp;&lt;/font&gt;" style="text;html=1;strokeColor=none;fillColor=none;align=left;verticalAlign=middle;whiteSpace=wrap;rounded=0;sketch=0;" parent="1" vertex="1">
          <mxGeometry x="270" y="540" width="340" height="80" as="geometry" />
        </mxCell>
        <mxCell id="_cZrSs8jWnKON0rCT3g9-27" value="software developer / web developer" style="text;strokeColor=none;fillColor=none;html=1;fontSize=18;fontStyle=1;verticalAlign=middle;align=center;rounded=0;sketch=0;" parent="1" vertex="1">
          <mxGeometry x="230" y="400" width="430" height="40" as="geometry" />
        </mxCell>
        <UserObject label="Profile" link="https://www.draw.io" id="OMazMSYFAPPYAOMap0HY-1">
          <mxCell style="text;html=1;strokeColor=none;fillColor=none;whiteSpace=wrap;align=center;verticalAlign=middle;fontColor=#0000EE;fontStyle=4;rounded=0;sketch=0;fontSize=16;" parent="1" vertex="1">
            <mxGeometry x="624" y="32.5" width="60" height="55" as="geometry" />
          </mxCell>
        </UserObject>
        <UserObject label="Error" link="data:page/id,UXKJgcOdYqPPJLNO4Yrg" id="OMazMSYFAPPYAOMap0HY-2">
          <mxCell style="text;html=1;strokeColor=none;fillColor=none;whiteSpace=wrap;align=center;verticalAlign=middle;fontColor=#0000EE;fontStyle=4;rounded=0;sketch=0;fontSize=16;" parent="1" vertex="1">
            <mxGeometry x="745" y="32.5" width="60" height="55" as="geometry" />
          </mxCell>
        </UserObject>
        <UserObject label="Contact" link="data:page/id,nL2O6JbR1vUlOwe9fpd9" id="OMazMSYFAPPYAOMap0HY-3">
          <mxCell style="text;html=1;strokeColor=none;fillColor=none;whiteSpace=wrap;align=center;verticalAlign=middle;fontColor=#0000EE;fontStyle=4;rounded=0;sketch=0;fontSize=16;" parent="1" vertex="1">
            <mxGeometry x="688" y="32.5" width="60" height="55" as="geometry" />
          </mxCell>
        </UserObject>
      </root>
    </mxGraphModel>
  </diagram>
  <diagram id="krAu767BFukZ0_Zx5y9g" name="Portfolio - Desktop">
    <mxGraphModel dx="2000" dy="1195" grid="1" gridSize="10" guides="1" tooltips="1" connect="1" arrows="1" fold="1" page="1" pageScale="1" pageWidth="850" pageHeight="1400" math="0" shadow="0">
      <root>
        <mxCell id="UiwxshYDCqZsbp5BWLt7-0" />
        <mxCell id="UiwxshYDCqZsbp5BWLt7-1" parent="UiwxshYDCqZsbp5BWLt7-0" />
        <mxCell id="LU_UGOeEypNY2QbXiSTu-0" value="" style="rounded=0;whiteSpace=wrap;html=1;sketch=0;" parent="UiwxshYDCqZsbp5BWLt7-1" vertex="1">
          <mxGeometry x="50" y="30" width="760" height="60" as="geometry" />
        </mxCell>
        <mxCell id="ClDoTBL8j5yr11GpzHoe-0" value="&lt;font style=&quot;font-size: 15px&quot;&gt;LOGO&lt;/font&gt;" style="text;html=1;strokeColor=none;fillColor=none;align=center;verticalAlign=middle;whiteSpace=wrap;rounded=0;sketch=0;" parent="UiwxshYDCqZsbp5BWLt7-1" vertex="1">
          <mxGeometry x="60" y="35" width="60" height="50" as="geometry" />
        </mxCell>
        <mxCell id="Z0R5gTprZowPbyasYVTI-0" value="" style="rounded=0;whiteSpace=wrap;html=1;sketch=0;" parent="UiwxshYDCqZsbp5BWLt7-1" vertex="1">
          <mxGeometry x="50" y="1320" width="760" height="60" as="geometry" />
        </mxCell>
        <mxCell id="v2EA459fJ1oGbiX-KJEO-0" value="&lt;font style=&quot;font-size: 15px&quot;&gt;LinkedIn&lt;/font&gt;" style="text;html=1;strokeColor=none;fillColor=none;align=center;verticalAlign=middle;whiteSpace=wrap;rounded=0;sketch=0;" parent="UiwxshYDCqZsbp5BWLt7-1" vertex="1">
          <mxGeometry x="327.5" y="1322.5" width="70" height="55" as="geometry" />
        </mxCell>
        <mxCell id="f347c7dNynIXSJ7mKyX3-0" value="&lt;font style=&quot;font-size: 15px&quot;&gt;GitHub&lt;/font&gt;" style="text;html=1;strokeColor=none;fillColor=none;align=center;verticalAlign=middle;whiteSpace=wrap;rounded=0;sketch=0;" parent="UiwxshYDCqZsbp5BWLt7-1" vertex="1">
          <mxGeometry x="397.5" y="1322.5" width="65" height="55" as="geometry" />
        </mxCell>
        <mxCell id="dC-TxE57L_0-LJ4O1SkE-0" value="&lt;font style=&quot;font-size: 15px&quot;&gt;Email&lt;/font&gt;" style="text;html=1;strokeColor=none;fillColor=none;align=center;verticalAlign=middle;whiteSpace=wrap;rounded=0;sketch=0;" parent="UiwxshYDCqZsbp5BWLt7-1" vertex="1">
          <mxGeometry x="450" y="1322.5" width="70" height="55" as="geometry" />
        </mxCell>
        <UserObject label="Error" id="HmF1FWZ7n-n8bXwQU-9c-0">
          <mxCell style="text;html=1;strokeColor=none;fillColor=none;whiteSpace=wrap;align=center;verticalAlign=middle;fontColor=#0000EE;fontStyle=4;rounded=0;sketch=0;fontSize=16;" parent="UiwxshYDCqZsbp5BWLt7-1" vertex="1">
            <mxGeometry x="745" y="32.5" width="60" height="55" as="geometry" />
          </mxCell>
        </UserObject>
        <UserObject label="Contact" id="VQ6_BNCmVl8xhvOqDPel-0">
          <mxCell style="text;html=1;strokeColor=none;fillColor=none;whiteSpace=wrap;align=center;verticalAlign=middle;fontColor=#0000EE;fontStyle=4;rounded=0;sketch=0;fontSize=16;" parent="UiwxshYDCqZsbp5BWLt7-1" vertex="1">
            <mxGeometry x="688" y="32.5" width="60" height="55" as="geometry" />
          </mxCell>
        </UserObject>
        <UserObject label="About" link="https://www.draw.io" id="RnAl1Bd1OG870OB-ssjX-0">
          <mxCell style="text;html=1;strokeColor=none;fillColor=none;whiteSpace=wrap;align=center;verticalAlign=middle;fontColor=#0000EE;fontStyle=4;rounded=0;sketch=0;fontSize=16;" parent="UiwxshYDCqZsbp5BWLt7-1" vertex="1">
            <mxGeometry x="624" y="32.5" width="60" height="55" as="geometry" />
          </mxCell>
        </UserObject>
        <mxCell id="_2yhZYbMiuMqW0oWLywg-0" value="Profile" style="text;strokeColor=none;fillColor=none;html=1;fontSize=24;fontStyle=1;verticalAlign=middle;align=center;rounded=0;sketch=0;" parent="UiwxshYDCqZsbp5BWLt7-1" vertex="1">
          <mxGeometry x="380" y="120" width="100" height="40" as="geometry" />
        </mxCell>
        <mxCell id="_2yhZYbMiuMqW0oWLywg-6" value="" style="rounded=0;whiteSpace=wrap;html=1;sketch=0;fontSize=16;" parent="UiwxshYDCqZsbp5BWLt7-1" vertex="1">
          <mxGeometry x="50" y="180" width="380" height="250" as="geometry" />
        </mxCell>
        <mxCell id="_2yhZYbMiuMqW0oWLywg-10" value="" style="rounded=0;whiteSpace=wrap;html=1;sketch=0;fontSize=16;" parent="UiwxshYDCqZsbp5BWLt7-1" vertex="1">
          <mxGeometry x="50" y="460" width="380" height="250" as="geometry" />
        </mxCell>
        <mxCell id="_2yhZYbMiuMqW0oWLywg-11" value="" style="rounded=0;whiteSpace=wrap;html=1;sketch=0;fontSize=16;" parent="UiwxshYDCqZsbp5BWLt7-1" vertex="1">
          <mxGeometry x="50" y="740" width="380" height="250" as="geometry" />
        </mxCell>
        <mxCell id="_2yhZYbMiuMqW0oWLywg-12" value="" style="rounded=0;whiteSpace=wrap;html=1;sketch=0;fontSize=16;" parent="UiwxshYDCqZsbp5BWLt7-1" vertex="1">
          <mxGeometry x="50" y="1030" width="380" height="250" as="geometry" />
        </mxCell>
        <mxCell id="_2yhZYbMiuMqW0oWLywg-13" value="" style="rounded=0;whiteSpace=wrap;html=1;sketch=0;fontSize=16;" parent="UiwxshYDCqZsbp5BWLt7-1" vertex="1">
          <mxGeometry x="430" y="180" width="380" height="250" as="geometry" />
        </mxCell>
        <mxCell id="_2yhZYbMiuMqW0oWLywg-14" value="" style="rounded=0;whiteSpace=wrap;html=1;sketch=0;fontSize=16;" parent="UiwxshYDCqZsbp5BWLt7-1" vertex="1">
          <mxGeometry x="430" y="460" width="380" height="250" as="geometry" />
        </mxCell>
        <mxCell id="_2yhZYbMiuMqW0oWLywg-15" value="" style="rounded=0;whiteSpace=wrap;html=1;sketch=0;fontSize=16;" parent="UiwxshYDCqZsbp5BWLt7-1" vertex="1">
          <mxGeometry x="430" y="740" width="380" height="250" as="geometry" />
        </mxCell>
        <mxCell id="_2yhZYbMiuMqW0oWLywg-16" value="" style="rounded=0;whiteSpace=wrap;html=1;sketch=0;fontSize=16;" parent="UiwxshYDCqZsbp5BWLt7-1" vertex="1">
          <mxGeometry x="430" y="1030" width="380" height="250" as="geometry" />
        </mxCell>
        <mxCell id="_2yhZYbMiuMqW0oWLywg-18" value="" style="endArrow=none;html=1;fontSize=16;entryX=1;entryY=0;entryDx=0;entryDy=0;exitX=0;exitY=1;exitDx=0;exitDy=0;" parent="UiwxshYDCqZsbp5BWLt7-1" source="_2yhZYbMiuMqW0oWLywg-6" target="_2yhZYbMiuMqW0oWLywg-6" edge="1">
          <mxGeometry width="50" height="50" relative="1" as="geometry">
            <mxPoint x="310" y="820" as="sourcePoint" />
            <mxPoint x="360" y="770" as="targetPoint" />
          </mxGeometry>
        </mxCell>
        <mxCell id="_2yhZYbMiuMqW0oWLywg-19" value="" style="endArrow=none;html=1;fontSize=16;entryX=0;entryY=0;entryDx=0;entryDy=0;exitX=1;exitY=1;exitDx=0;exitDy=0;" parent="UiwxshYDCqZsbp5BWLt7-1" source="_2yhZYbMiuMqW0oWLywg-6" target="_2yhZYbMiuMqW0oWLywg-6" edge="1">
          <mxGeometry width="50" height="50" relative="1" as="geometry">
            <mxPoint x="310" y="820" as="sourcePoint" />
            <mxPoint x="360" y="770" as="targetPoint" />
          </mxGeometry>
        </mxCell>
        <mxCell id="_2yhZYbMiuMqW0oWLywg-20" value="" style="endArrow=none;html=1;fontSize=16;entryX=1;entryY=0;entryDx=0;entryDy=0;exitX=0;exitY=1;exitDx=0;exitDy=0;" parent="UiwxshYDCqZsbp5BWLt7-1" source="_2yhZYbMiuMqW0oWLywg-10" target="_2yhZYbMiuMqW0oWLywg-10" edge="1">
          <mxGeometry width="50" height="50" relative="1" as="geometry">
            <mxPoint x="310" y="820" as="sourcePoint" />
            <mxPoint x="360" y="770" as="targetPoint" />
          </mxGeometry>
        </mxCell>
        <mxCell id="_2yhZYbMiuMqW0oWLywg-21" value="" style="endArrow=none;html=1;fontSize=16;entryX=0;entryY=0;entryDx=0;entryDy=0;exitX=1;exitY=1;exitDx=0;exitDy=0;" parent="UiwxshYDCqZsbp5BWLt7-1" source="_2yhZYbMiuMqW0oWLywg-10" target="_2yhZYbMiuMqW0oWLywg-10" edge="1">
          <mxGeometry width="50" height="50" relative="1" as="geometry">
            <mxPoint x="310" y="820" as="sourcePoint" />
            <mxPoint x="360" y="770" as="targetPoint" />
          </mxGeometry>
        </mxCell>
        <mxCell id="_2yhZYbMiuMqW0oWLywg-22" value="" style="endArrow=none;html=1;fontSize=16;entryX=1;entryY=0;entryDx=0;entryDy=0;exitX=0;exitY=1;exitDx=0;exitDy=0;" parent="UiwxshYDCqZsbp5BWLt7-1" source="_2yhZYbMiuMqW0oWLywg-11" target="_2yhZYbMiuMqW0oWLywg-11" edge="1">
          <mxGeometry width="50" height="50" relative="1" as="geometry">
            <mxPoint x="310" y="820" as="sourcePoint" />
            <mxPoint x="360" y="770" as="targetPoint" />
          </mxGeometry>
        </mxCell>
        <mxCell id="_2yhZYbMiuMqW0oWLywg-23" value="" style="endArrow=none;html=1;fontSize=16;entryX=0;entryY=0;entryDx=0;entryDy=0;exitX=1;exitY=1;exitDx=0;exitDy=0;" parent="UiwxshYDCqZsbp5BWLt7-1" source="_2yhZYbMiuMqW0oWLywg-11" target="_2yhZYbMiuMqW0oWLywg-11" edge="1">
          <mxGeometry width="50" height="50" relative="1" as="geometry">
            <mxPoint x="310" y="820" as="sourcePoint" />
            <mxPoint x="360" y="770" as="targetPoint" />
          </mxGeometry>
        </mxCell>
        <mxCell id="_2yhZYbMiuMqW0oWLywg-24" value="" style="endArrow=none;html=1;fontSize=16;entryX=1;entryY=0;entryDx=0;entryDy=0;exitX=0;exitY=1;exitDx=0;exitDy=0;" parent="UiwxshYDCqZsbp5BWLt7-1" source="_2yhZYbMiuMqW0oWLywg-12" target="_2yhZYbMiuMqW0oWLywg-12" edge="1">
          <mxGeometry width="50" height="50" relative="1" as="geometry">
            <mxPoint x="310" y="820" as="sourcePoint" />
            <mxPoint x="360" y="770" as="targetPoint" />
          </mxGeometry>
        </mxCell>
        <mxCell id="_2yhZYbMiuMqW0oWLywg-25" value="" style="endArrow=none;html=1;fontSize=16;entryX=0;entryY=0;entryDx=0;entryDy=0;exitX=1;exitY=1;exitDx=0;exitDy=0;" parent="UiwxshYDCqZsbp5BWLt7-1" source="_2yhZYbMiuMqW0oWLywg-12" target="_2yhZYbMiuMqW0oWLywg-12" edge="1">
          <mxGeometry width="50" height="50" relative="1" as="geometry">
            <mxPoint x="310" y="820" as="sourcePoint" />
            <mxPoint x="360" y="770" as="targetPoint" />
          </mxGeometry>
        </mxCell>
        <mxCell id="_2yhZYbMiuMqW0oWLywg-26" value="Project 1 Title:" style="text;html=1;strokeColor=none;fillColor=none;align=center;verticalAlign=middle;whiteSpace=wrap;rounded=0;sketch=0;fontSize=16;" parent="UiwxshYDCqZsbp5BWLt7-1" vertex="1">
          <mxGeometry x="562.5" y="190" width="115" height="20" as="geometry" />
        </mxCell>
        <mxCell id="_2yhZYbMiuMqW0oWLywg-27" value="Project 2 Title:" style="text;html=1;strokeColor=none;fillColor=none;align=center;verticalAlign=middle;whiteSpace=wrap;rounded=0;sketch=0;fontSize=16;" parent="UiwxshYDCqZsbp5BWLt7-1" vertex="1">
          <mxGeometry x="562.5" y="470" width="115" height="20" as="geometry" />
        </mxCell>
        <mxCell id="_2yhZYbMiuMqW0oWLywg-28" value="Project 3 Title:" style="text;html=1;strokeColor=none;fillColor=none;align=center;verticalAlign=middle;whiteSpace=wrap;rounded=0;sketch=0;fontSize=16;" parent="UiwxshYDCqZsbp5BWLt7-1" vertex="1">
          <mxGeometry x="562.5" y="750" width="115" height="20" as="geometry" />
        </mxCell>
        <mxCell id="_2yhZYbMiuMqW0oWLywg-29" value="Project 4 Title:" style="text;html=1;strokeColor=none;fillColor=none;align=center;verticalAlign=middle;whiteSpace=wrap;rounded=0;sketch=0;fontSize=16;" parent="UiwxshYDCqZsbp5BWLt7-1" vertex="1">
          <mxGeometry x="562.5" y="1040" width="115" height="20" as="geometry" />
        </mxCell>
        <mxCell id="_2yhZYbMiuMqW0oWLywg-33" value="languages / frameworks" style="text;html=1;strokeColor=none;fillColor=none;align=center;verticalAlign=middle;whiteSpace=wrap;rounded=0;sketch=0;fontSize=16;" parent="UiwxshYDCqZsbp5BWLt7-1" vertex="1">
          <mxGeometry x="440" y="500" width="190" height="20" as="geometry" />
        </mxCell>
        <mxCell id="_2yhZYbMiuMqW0oWLywg-34" value="Description lorem ..." style="text;html=1;strokeColor=none;fillColor=none;align=center;verticalAlign=middle;whiteSpace=wrap;rounded=0;sketch=0;fontSize=16;" parent="UiwxshYDCqZsbp5BWLt7-1" vertex="1">
          <mxGeometry x="444" y="525" width="153" height="20" as="geometry" />
        </mxCell>
        <mxCell id="_2yhZYbMiuMqW0oWLywg-36" value="languages / frameworks" style="text;html=1;strokeColor=none;fillColor=none;align=center;verticalAlign=middle;whiteSpace=wrap;rounded=0;sketch=0;fontSize=16;" parent="UiwxshYDCqZsbp5BWLt7-1" vertex="1">
          <mxGeometry x="446" y="220" width="190" height="20" as="geometry" />
        </mxCell>
        <mxCell id="_2yhZYbMiuMqW0oWLywg-37" value="languages / frameworks" style="text;html=1;strokeColor=none;fillColor=none;align=center;verticalAlign=middle;whiteSpace=wrap;rounded=0;sketch=0;fontSize=16;" parent="UiwxshYDCqZsbp5BWLt7-1" vertex="1">
          <mxGeometry x="446" y="780" width="190" height="20" as="geometry" />
        </mxCell>
        <mxCell id="_2yhZYbMiuMqW0oWLywg-38" value="languages / frameworks" style="text;html=1;strokeColor=none;fillColor=none;align=center;verticalAlign=middle;whiteSpace=wrap;rounded=0;sketch=0;fontSize=16;" parent="UiwxshYDCqZsbp5BWLt7-1" vertex="1">
          <mxGeometry x="446" y="1070" width="190" height="20" as="geometry" />
        </mxCell>
        <mxCell id="_2yhZYbMiuMqW0oWLywg-39" value="Description lorem ..." style="text;html=1;strokeColor=none;fillColor=none;align=center;verticalAlign=middle;whiteSpace=wrap;rounded=0;sketch=0;fontSize=16;" parent="UiwxshYDCqZsbp5BWLt7-1" vertex="1">
          <mxGeometry x="450" y="245" width="153" height="20" as="geometry" />
        </mxCell>
        <mxCell id="_2yhZYbMiuMqW0oWLywg-40" value="Description lorem ..." style="text;html=1;strokeColor=none;fillColor=none;align=center;verticalAlign=middle;whiteSpace=wrap;rounded=0;sketch=0;fontSize=16;" parent="UiwxshYDCqZsbp5BWLt7-1" vertex="1">
          <mxGeometry x="450" y="1095" width="153" height="20" as="geometry" />
        </mxCell>
        <mxCell id="_2yhZYbMiuMqW0oWLywg-41" value="Description lorem ..." style="text;html=1;strokeColor=none;fillColor=none;align=center;verticalAlign=middle;whiteSpace=wrap;rounded=0;sketch=0;fontSize=16;" parent="UiwxshYDCqZsbp5BWLt7-1" vertex="1">
          <mxGeometry x="450" y="805" width="153" height="20" as="geometry" />
        </mxCell>
      </root>
    </mxGraphModel>
  </diagram>
  <diagram id="FVk_4aW7M6y1hUJBNqYg" name="Portfolio - Web">
    <mxGraphModel dx="3000" dy="1793" grid="1" gridSize="10" guides="1" tooltips="1" connect="1" arrows="1" fold="1" page="1" pageScale="1" pageWidth="850" pageHeight="1400" math="0" shadow="0">
      <root>
        <mxCell id="K3QuSQfXJoFcfF0l34tI-0" />
        <mxCell id="K3QuSQfXJoFcfF0l34tI-1" parent="K3QuSQfXJoFcfF0l34tI-0" />
        <mxCell id="0v0_aScNax0FTkmfvmnb-4" value="" style="rounded=0;whiteSpace=wrap;html=1;fontSize=10;fontColor=#666666;" vertex="1" parent="K3QuSQfXJoFcfF0l34tI-1">
          <mxGeometry x="50" y="1230" width="760" height="220" as="geometry" />
        </mxCell>
        <mxCell id="FMIQjcDHbXxCk5w7vRJf-0" value="" style="rounded=0;whiteSpace=wrap;html=1;sketch=0;" vertex="1" parent="K3QuSQfXJoFcfF0l34tI-1">
          <mxGeometry x="50" y="30" width="760" height="60" as="geometry" />
        </mxCell>
        <mxCell id="HPQNqINhJqzoFekEFuMe-0" value="&lt;font style=&quot;font-size: 15px&quot;&gt;LOGO&lt;/font&gt;" style="text;html=1;strokeColor=none;fillColor=none;align=center;verticalAlign=middle;whiteSpace=wrap;rounded=0;sketch=0;" vertex="1" parent="K3QuSQfXJoFcfF0l34tI-1">
          <mxGeometry x="60" y="35" width="60" height="50" as="geometry" />
        </mxCell>
        <UserObject label="About" link="https://www.draw.io" id="5G4rTG7b6c3I4GVzxfLL-0">
          <mxCell style="text;html=1;strokeColor=none;fillColor=none;whiteSpace=wrap;align=center;verticalAlign=middle;fontColor=#0000EE;fontStyle=4;rounded=0;sketch=0;fontSize=16;" vertex="1" parent="K3QuSQfXJoFcfF0l34tI-1">
            <mxGeometry x="624" y="32.5" width="60" height="55" as="geometry" />
          </mxCell>
        </UserObject>
        <UserObject label="Contact" id="7PwWfvQosh16lBPSvmYO-0">
          <mxCell style="text;html=1;strokeColor=none;fillColor=none;whiteSpace=wrap;align=center;verticalAlign=middle;fontColor=#0000EE;fontStyle=4;rounded=0;sketch=0;fontSize=16;" vertex="1" parent="K3QuSQfXJoFcfF0l34tI-1">
            <mxGeometry x="688" y="32.5" width="60" height="55" as="geometry" />
          </mxCell>
        </UserObject>
        <UserObject label="Error" id="xWB9JB_tKXssZk_kPVOi-0">
          <mxCell style="text;html=1;strokeColor=none;fillColor=none;whiteSpace=wrap;align=center;verticalAlign=middle;fontColor=#0000EE;fontStyle=4;rounded=0;sketch=0;fontSize=16;" vertex="1" parent="K3QuSQfXJoFcfF0l34tI-1">
            <mxGeometry x="745" y="32.5" width="60" height="55" as="geometry" />
          </mxCell>
        </UserObject>
        <mxCell id="5o7Ihf7bRK_GpBzf7zZv-0" value="Profile" style="text;strokeColor=none;fillColor=none;html=1;fontSize=24;fontStyle=1;verticalAlign=middle;align=center;rounded=0;sketch=0;" vertex="1" parent="K3QuSQfXJoFcfF0l34tI-1">
          <mxGeometry x="380" y="120" width="100" height="40" as="geometry" />
        </mxCell>
        <mxCell id="psAs-ZElqgavI4TMT-1W-0" value="" style="rounded=0;whiteSpace=wrap;html=1;sketch=0;" vertex="1" parent="K3QuSQfXJoFcfF0l34tI-1">
          <mxGeometry x="42.5" y="2890" width="760" height="60" as="geometry" />
        </mxCell>
        <mxCell id="Ju4aqt7ddRQ8jL0G4tgG-0" value="&lt;font style=&quot;font-size: 15px&quot;&gt;LinkedIn&lt;/font&gt;" style="text;html=1;strokeColor=none;fillColor=none;align=center;verticalAlign=middle;whiteSpace=wrap;rounded=0;sketch=0;" vertex="1" parent="K3QuSQfXJoFcfF0l34tI-1">
          <mxGeometry x="323" y="2892.5" width="70" height="55" as="geometry" />
        </mxCell>
        <mxCell id="U2mmfIsuzOAfHpEoK5Lw-0" value="&lt;font style=&quot;font-size: 15px&quot;&gt;GitHub&lt;/font&gt;" style="text;html=1;strokeColor=none;fillColor=none;align=center;verticalAlign=middle;whiteSpace=wrap;rounded=0;sketch=0;" vertex="1" parent="K3QuSQfXJoFcfF0l34tI-1">
          <mxGeometry x="390.5" y="2892.5" width="65" height="55" as="geometry" />
        </mxCell>
        <mxCell id="MmT73DpbijiARxVRME3w-0" value="&lt;font style=&quot;font-size: 15px&quot;&gt;Email&lt;/font&gt;" style="text;html=1;strokeColor=none;fillColor=none;align=center;verticalAlign=middle;whiteSpace=wrap;rounded=0;sketch=0;" vertex="1" parent="K3QuSQfXJoFcfF0l34tI-1">
          <mxGeometry x="450" y="2892.5" width="70" height="55" as="geometry" />
        </mxCell>
        <mxCell id="PLeFdl0e6I2O1bPTd5Ve-0" value="" style="rounded=0;whiteSpace=wrap;html=1;sketch=0;fontSize=16;" vertex="1" parent="K3QuSQfXJoFcfF0l34tI-1">
          <mxGeometry x="50" y="190" width="755" height="350" as="geometry" />
        </mxCell>
        <mxCell id="ZEfEFqATrqNGMTh99TPG-0" value="" style="endArrow=none;html=1;fontSize=10;fontColor=#666666;exitX=0;exitY=1;exitDx=0;exitDy=0;entryX=1;entryY=0;entryDx=0;entryDy=0;" edge="1" parent="K3QuSQfXJoFcfF0l34tI-1" source="PLeFdl0e6I2O1bPTd5Ve-0" target="PLeFdl0e6I2O1bPTd5Ve-0">
          <mxGeometry width="50" height="50" relative="1" as="geometry">
            <mxPoint x="630" y="290" as="sourcePoint" />
            <mxPoint x="680" y="240" as="targetPoint" />
          </mxGeometry>
        </mxCell>
        <mxCell id="ZEfEFqATrqNGMTh99TPG-1" value="" style="endArrow=none;html=1;fontSize=10;fontColor=#666666;exitX=0;exitY=0;exitDx=0;exitDy=0;entryX=1;entryY=1;entryDx=0;entryDy=0;" edge="1" parent="K3QuSQfXJoFcfF0l34tI-1" source="PLeFdl0e6I2O1bPTd5Ve-0" target="PLeFdl0e6I2O1bPTd5Ve-0">
          <mxGeometry width="50" height="50" relative="1" as="geometry">
            <mxPoint x="630" y="290" as="sourcePoint" />
            <mxPoint x="680" y="240" as="targetPoint" />
          </mxGeometry>
        </mxCell>
        <mxCell id="ZEfEFqATrqNGMTh99TPG-2" value="" style="rounded=0;whiteSpace=wrap;html=1;fontSize=10;fontColor=#666666;" vertex="1" parent="K3QuSQfXJoFcfF0l34tI-1">
          <mxGeometry x="47.5" y="580" width="760" height="220" as="geometry" />
        </mxCell>
        <mxCell id="g6hFgQH6E-Xf_F_y6GP3-0" value="Project 1 Title:" style="text;html=1;strokeColor=none;fillColor=none;align=center;verticalAlign=middle;whiteSpace=wrap;rounded=0;sketch=0;fontSize=16;" vertex="1" parent="K3QuSQfXJoFcfF0l34tI-1">
          <mxGeometry x="368" y="590" width="115" height="20" as="geometry" />
        </mxCell>
        <mxCell id="n-kX1pdQCXIdeF-x8h-v-0" value="languages / frameworks" style="text;html=1;strokeColor=none;fillColor=none;align=center;verticalAlign=middle;whiteSpace=wrap;rounded=0;sketch=0;fontSize=16;" vertex="1" parent="K3QuSQfXJoFcfF0l34tI-1">
          <mxGeometry x="80" y="620" width="190" height="20" as="geometry" />
        </mxCell>
        <mxCell id="0v0_aScNax0FTkmfvmnb-0" value="Description lorem ..." style="text;html=1;strokeColor=none;fillColor=none;align=center;verticalAlign=middle;whiteSpace=wrap;rounded=0;sketch=0;fontSize=16;" vertex="1" parent="K3QuSQfXJoFcfF0l34tI-1">
          <mxGeometry x="84" y="650" width="153" height="20" as="geometry" />
        </mxCell>
        <mxCell id="0v0_aScNax0FTkmfvmnb-1" value="" style="rounded=0;whiteSpace=wrap;html=1;sketch=0;fontSize=16;" vertex="1" parent="K3QuSQfXJoFcfF0l34tI-1">
          <mxGeometry x="48" y="840" width="755" height="350" as="geometry" />
        </mxCell>
        <mxCell id="0v0_aScNax0FTkmfvmnb-2" value="" style="endArrow=none;html=1;fontSize=10;fontColor=#666666;exitX=0;exitY=0;exitDx=0;exitDy=0;entryX=1;entryY=1;entryDx=0;entryDy=0;" edge="1" parent="K3QuSQfXJoFcfF0l34tI-1">
          <mxGeometry width="50" height="50" relative="1" as="geometry">
            <mxPoint x="47.50000000000091" y="840" as="sourcePoint" />
            <mxPoint x="802.5" y="1190.0000000000002" as="targetPoint" />
          </mxGeometry>
        </mxCell>
        <mxCell id="0v0_aScNax0FTkmfvmnb-3" value="" style="endArrow=none;html=1;fontSize=10;fontColor=#666666;exitX=0;exitY=1;exitDx=0;exitDy=0;entryX=1;entryY=0;entryDx=0;entryDy=0;" edge="1" parent="K3QuSQfXJoFcfF0l34tI-1">
          <mxGeometry width="50" height="50" relative="1" as="geometry">
            <mxPoint x="48" y="1190.0000000000002" as="sourcePoint" />
            <mxPoint x="803" y="840" as="targetPoint" />
          </mxGeometry>
        </mxCell>
        <mxCell id="0v0_aScNax0FTkmfvmnb-5" value="Project 2 Title:" style="text;html=1;strokeColor=none;fillColor=none;align=center;verticalAlign=middle;whiteSpace=wrap;rounded=0;sketch=0;fontSize=16;" vertex="1" parent="K3QuSQfXJoFcfF0l34tI-1">
          <mxGeometry x="370" y="1250" width="115" height="20" as="geometry" />
        </mxCell>
        <mxCell id="0v0_aScNax0FTkmfvmnb-6" value="languages / frameworks" style="text;html=1;strokeColor=none;fillColor=none;align=center;verticalAlign=middle;whiteSpace=wrap;rounded=0;sketch=0;fontSize=16;" vertex="1" parent="K3QuSQfXJoFcfF0l34tI-1">
          <mxGeometry x="84" y="1280" width="190" height="20" as="geometry" />
        </mxCell>
        <mxCell id="0v0_aScNax0FTkmfvmnb-7" value="" style="rounded=0;whiteSpace=wrap;html=1;sketch=0;fontSize=16;" vertex="1" parent="K3QuSQfXJoFcfF0l34tI-1">
          <mxGeometry x="50" y="1500" width="755" height="350" as="geometry" />
        </mxCell>
        <mxCell id="0v0_aScNax0FTkmfvmnb-8" value="" style="rounded=0;whiteSpace=wrap;html=1;fontSize=10;fontColor=#666666;" vertex="1" parent="K3QuSQfXJoFcfF0l34tI-1">
          <mxGeometry x="47.5" y="1900" width="760" height="220" as="geometry" />
        </mxCell>
        <mxCell id="0v0_aScNax0FTkmfvmnb-9" value="Project 3 Title:" style="text;html=1;strokeColor=none;fillColor=none;align=center;verticalAlign=middle;whiteSpace=wrap;rounded=0;sketch=0;fontSize=16;" vertex="1" parent="K3QuSQfXJoFcfF0l34tI-1">
          <mxGeometry x="365" y="1930" width="115" height="20" as="geometry" />
        </mxCell>
        <mxCell id="0v0_aScNax0FTkmfvmnb-10" value="" style="rounded=0;whiteSpace=wrap;html=1;sketch=0;fontSize=16;" vertex="1" parent="K3QuSQfXJoFcfF0l34tI-1">
          <mxGeometry x="48" y="2180" width="755" height="350" as="geometry" />
        </mxCell>
        <mxCell id="0v0_aScNax0FTkmfvmnb-11" value="" style="endArrow=none;html=1;fontSize=10;fontColor=#666666;exitX=0;exitY=1;exitDx=0;exitDy=0;entryX=1;entryY=0;entryDx=0;entryDy=0;" edge="1" parent="K3QuSQfXJoFcfF0l34tI-1">
          <mxGeometry width="50" height="50" relative="1" as="geometry">
            <mxPoint x="55" y="1850" as="sourcePoint" />
            <mxPoint x="810" y="1500" as="targetPoint" />
          </mxGeometry>
        </mxCell>
        <mxCell id="0v0_aScNax0FTkmfvmnb-12" value="" style="endArrow=none;html=1;fontSize=10;fontColor=#666666;exitX=0;exitY=1;exitDx=0;exitDy=0;entryX=1;entryY=0;entryDx=0;entryDy=0;" edge="1" parent="K3QuSQfXJoFcfF0l34tI-1">
          <mxGeometry width="50" height="50" relative="1" as="geometry">
            <mxPoint x="45" y="2530" as="sourcePoint" />
            <mxPoint x="800" y="2180" as="targetPoint" />
          </mxGeometry>
        </mxCell>
        <mxCell id="0v0_aScNax0FTkmfvmnb-13" value="" style="endArrow=none;html=1;fontSize=10;fontColor=#666666;exitX=0;exitY=0;exitDx=0;exitDy=0;entryX=1;entryY=1;entryDx=0;entryDy=0;" edge="1" parent="K3QuSQfXJoFcfF0l34tI-1">
          <mxGeometry width="50" height="50" relative="1" as="geometry">
            <mxPoint x="52.50000000000091" y="1500" as="sourcePoint" />
            <mxPoint x="807.5" y="1850" as="targetPoint" />
          </mxGeometry>
        </mxCell>
        <mxCell id="0v0_aScNax0FTkmfvmnb-14" value="" style="endArrow=none;html=1;fontSize=10;fontColor=#666666;exitX=0;exitY=0;exitDx=0;exitDy=0;entryX=1;entryY=1;entryDx=0;entryDy=0;" edge="1" parent="K3QuSQfXJoFcfF0l34tI-1">
          <mxGeometry width="50" height="50" relative="1" as="geometry">
            <mxPoint x="45.00000000000091" y="2180" as="sourcePoint" />
            <mxPoint x="800" y="2530" as="targetPoint" />
          </mxGeometry>
        </mxCell>
        <mxCell id="0v0_aScNax0FTkmfvmnb-15" value="" style="rounded=0;whiteSpace=wrap;html=1;fontSize=10;fontColor=#666666;" vertex="1" parent="K3QuSQfXJoFcfF0l34tI-1">
          <mxGeometry x="43" y="2600" width="760" height="220" as="geometry" />
        </mxCell>
        <mxCell id="0v0_aScNax0FTkmfvmnb-16" value="Project 4 Title:" style="text;html=1;strokeColor=none;fillColor=none;align=center;verticalAlign=middle;whiteSpace=wrap;rounded=0;sketch=0;fontSize=16;" vertex="1" parent="K3QuSQfXJoFcfF0l34tI-1">
          <mxGeometry x="368" y="2620" width="115" height="20" as="geometry" />
        </mxCell>
        <mxCell id="0v0_aScNax0FTkmfvmnb-17" value="languages / frameworks" style="text;html=1;strokeColor=none;fillColor=none;align=center;verticalAlign=middle;whiteSpace=wrap;rounded=0;sketch=0;fontSize=16;" vertex="1" parent="K3QuSQfXJoFcfF0l34tI-1">
          <mxGeometry x="84" y="1960" width="190" height="20" as="geometry" />
        </mxCell>
        <mxCell id="0v0_aScNax0FTkmfvmnb-18" value="languages / frameworks" style="text;html=1;strokeColor=none;fillColor=none;align=center;verticalAlign=middle;whiteSpace=wrap;rounded=0;sketch=0;fontSize=16;" vertex="1" parent="K3QuSQfXJoFcfF0l34tI-1">
          <mxGeometry x="84" y="2650" width="190" height="20" as="geometry" />
        </mxCell>
        <mxCell id="0v0_aScNax0FTkmfvmnb-20" value="Description lorem ..." style="text;html=1;strokeColor=none;fillColor=none;align=center;verticalAlign=middle;whiteSpace=wrap;rounded=0;sketch=0;fontSize=16;" vertex="1" parent="K3QuSQfXJoFcfF0l34tI-1">
          <mxGeometry x="90" y="1310" width="153" height="20" as="geometry" />
        </mxCell>
        <mxCell id="0v0_aScNax0FTkmfvmnb-21" value="Description lorem ..." style="text;html=1;strokeColor=none;fillColor=none;align=center;verticalAlign=middle;whiteSpace=wrap;rounded=0;sketch=0;fontSize=16;" vertex="1" parent="K3QuSQfXJoFcfF0l34tI-1">
          <mxGeometry x="90" y="1990" width="153" height="20" as="geometry" />
        </mxCell>
        <mxCell id="0v0_aScNax0FTkmfvmnb-22" value="Description lorem ..." style="text;html=1;strokeColor=none;fillColor=none;align=center;verticalAlign=middle;whiteSpace=wrap;rounded=0;sketch=0;fontSize=16;" vertex="1" parent="K3QuSQfXJoFcfF0l34tI-1">
          <mxGeometry x="90" y="2680" width="153" height="20" as="geometry" />
        </mxCell>
      </root>
    </mxGraphModel>
  </diagram>
  <diagram id="nL2O6JbR1vUlOwe9fpd9" name="Contact - Desktop">
    <mxGraphModel dx="2000" dy="1195" grid="1" gridSize="10" guides="1" tooltips="1" connect="1" arrows="1" fold="1" page="1" pageScale="1" pageWidth="850" pageHeight="1100" math="0" shadow="0">
      <root>
        <mxCell id="gkBaJMHQkPIM5ymTCWlj-0" />
        <mxCell id="gkBaJMHQkPIM5ymTCWlj-1" parent="gkBaJMHQkPIM5ymTCWlj-0" />
        <mxCell id="k9XorKPZrQHirwPCLUAR-15" value="First Name" style="text;html=1;strokeColor=none;fillColor=none;align=center;verticalAlign=middle;whiteSpace=wrap;rounded=0;sketch=0;fontSize=14;" parent="gkBaJMHQkPIM5ymTCWlj-1" vertex="1">
          <mxGeometry x="256" y="380" width="84" height="15" as="geometry" />
        </mxCell>
        <mxCell id="k9XorKPZrQHirwPCLUAR-16" value="" style="verticalLabelPosition=bottom;verticalAlign=top;html=1;shape=mxgraph.basic.rect;fillColor2=none;strokeWidth=1;size=20;indent=5;rounded=0;sketch=0;fontSize=14;" parent="gkBaJMHQkPIM5ymTCWlj-1" vertex="1">
          <mxGeometry x="263" y="370" width="110" height="25" as="geometry" />
        </mxCell>
        <mxCell id="gkBaJMHQkPIM5ymTCWlj-2" value="" style="rounded=0;whiteSpace=wrap;html=1;sketch=0;" parent="gkBaJMHQkPIM5ymTCWlj-1" vertex="1">
          <mxGeometry x="50" y="30" width="760" height="60" as="geometry" />
        </mxCell>
        <mxCell id="kC08XpUQ3l36K3T_26qV-0" value="&lt;font style=&quot;font-size: 15px&quot;&gt;LOGO&lt;/font&gt;" style="text;html=1;strokeColor=none;fillColor=none;align=center;verticalAlign=middle;whiteSpace=wrap;rounded=0;sketch=0;" parent="gkBaJMHQkPIM5ymTCWlj-1" vertex="1">
          <mxGeometry x="60" y="35" width="60" height="50" as="geometry" />
        </mxCell>
        <mxCell id="_CVwD-NBrTqlZluLOs_F-0" value="" style="rounded=0;whiteSpace=wrap;html=1;sketch=0;" parent="gkBaJMHQkPIM5ymTCWlj-1" vertex="1">
          <mxGeometry x="50" y="1020" width="760" height="60" as="geometry" />
        </mxCell>
        <mxCell id="AOnog3ASR759dobC1Exl-0" value="&lt;font style=&quot;font-size: 15px&quot;&gt;LinkedIn&lt;/font&gt;" style="text;html=1;strokeColor=none;fillColor=none;align=center;verticalAlign=middle;whiteSpace=wrap;rounded=0;sketch=0;" parent="gkBaJMHQkPIM5ymTCWlj-1" vertex="1">
          <mxGeometry x="323" y="1022.5" width="70" height="55" as="geometry" />
        </mxCell>
        <mxCell id="fzLtsy7Esxxb0JL6oU3F-0" value="&lt;font style=&quot;font-size: 15px&quot;&gt;GitHub&lt;/font&gt;" style="text;html=1;strokeColor=none;fillColor=none;align=center;verticalAlign=middle;whiteSpace=wrap;rounded=0;sketch=0;" parent="gkBaJMHQkPIM5ymTCWlj-1" vertex="1">
          <mxGeometry x="393" y="1022.5" width="65" height="55" as="geometry" />
        </mxCell>
        <mxCell id="Y9URU_hyj9DfyOB66yYk-0" value="&lt;font style=&quot;font-size: 15px&quot;&gt;Email&lt;/font&gt;" style="text;html=1;strokeColor=none;fillColor=none;align=center;verticalAlign=middle;whiteSpace=wrap;rounded=0;sketch=0;" parent="gkBaJMHQkPIM5ymTCWlj-1" vertex="1">
          <mxGeometry x="450" y="1022.5" width="70" height="55" as="geometry" />
        </mxCell>
        <UserObject label="Error" id="rKsU6lJ1MKyTvpCtTwZL-0">
          <mxCell style="text;html=1;strokeColor=none;fillColor=none;whiteSpace=wrap;align=center;verticalAlign=middle;fontColor=#0000EE;fontStyle=4;rounded=0;sketch=0;fontSize=16;" parent="gkBaJMHQkPIM5ymTCWlj-1" vertex="1">
            <mxGeometry x="745" y="32.5" width="60" height="55" as="geometry" />
          </mxCell>
        </UserObject>
        <UserObject label="Profile" id="zAsCOykpZpSj-OLE4bV7-0">
          <mxCell style="text;html=1;strokeColor=none;fillColor=none;whiteSpace=wrap;align=center;verticalAlign=middle;fontColor=#0000EE;fontStyle=4;rounded=0;sketch=0;fontSize=16;" parent="gkBaJMHQkPIM5ymTCWlj-1" vertex="1">
            <mxGeometry x="688" y="32.5" width="60" height="55" as="geometry" />
          </mxCell>
        </UserObject>
        <UserObject label="About" link="https://www.draw.io" id="S62aKPHBqK5jy8Qf-K2U-0">
          <mxCell style="text;html=1;strokeColor=none;fillColor=none;whiteSpace=wrap;align=center;verticalAlign=middle;fontColor=#0000EE;fontStyle=4;rounded=0;sketch=0;fontSize=16;" parent="gkBaJMHQkPIM5ymTCWlj-1" vertex="1">
            <mxGeometry x="624" y="32.5" width="60" height="55" as="geometry" />
          </mxCell>
        </UserObject>
        <mxCell id="k9XorKPZrQHirwPCLUAR-0" value="Contact Me" style="text;strokeColor=none;fillColor=none;html=1;fontSize=27;fontStyle=1;verticalAlign=middle;align=center;rounded=0;sketch=0;" parent="gkBaJMHQkPIM5ymTCWlj-1" vertex="1">
          <mxGeometry x="345" y="170" width="160" height="40" as="geometry" />
        </mxCell>
        <mxCell id="k9XorKPZrQHirwPCLUAR-1" value="" style="rounded=0;whiteSpace=wrap;html=1;sketch=0;fontSize=27;" parent="gkBaJMHQkPIM5ymTCWlj-1" vertex="1">
          <mxGeometry x="130" y="250" width="590" height="310" as="geometry" />
        </mxCell>
        <mxCell id="k9XorKPZrQHirwPCLUAR-2" value="Help on projects or freelance..." style="text;html=1;strokeColor=none;fillColor=none;align=center;verticalAlign=middle;whiteSpace=wrap;rounded=0;sketch=0;fontSize=20;" parent="gkBaJMHQkPIM5ymTCWlj-1" vertex="1">
          <mxGeometry x="160" y="280" width="292" height="20" as="geometry" />
        </mxCell>
        <mxCell id="k9XorKPZrQHirwPCLUAR-3" value="Reach out: ..." style="text;html=1;strokeColor=none;fillColor=none;align=center;verticalAlign=middle;whiteSpace=wrap;rounded=0;sketch=0;fontSize=20;" parent="gkBaJMHQkPIM5ymTCWlj-1" vertex="1">
          <mxGeometry x="160" y="320" width="140" height="20" as="geometry" />
        </mxCell>
        <mxCell id="k9XorKPZrQHirwPCLUAR-5" value="" style="rounded=0;whiteSpace=wrap;html=1;sketch=0;fontSize=20;" parent="gkBaJMHQkPIM5ymTCWlj-1" vertex="1">
          <mxGeometry x="290" y="420" width="260" height="100" as="geometry" />
        </mxCell>
        <mxCell id="k9XorKPZrQHirwPCLUAR-9" value="" style="rounded=1;whiteSpace=wrap;html=1;sketch=0;fontSize=20;" parent="gkBaJMHQkPIM5ymTCWlj-1" vertex="1">
          <mxGeometry x="375" y="530" width="90" height="20" as="geometry" />
        </mxCell>
        <mxCell id="k9XorKPZrQHirwPCLUAR-12" value="&lt;font style=&quot;font-size: 12px&quot; color=&quot;#666666&quot;&gt;Send Message&lt;/font&gt;" style="text;html=1;strokeColor=none;fillColor=none;align=center;verticalAlign=middle;whiteSpace=wrap;rounded=0;sketch=0;fontSize=10;" parent="gkBaJMHQkPIM5ymTCWlj-1" vertex="1">
          <mxGeometry x="373" y="520" width="97" height="40" as="geometry" />
        </mxCell>
        <mxCell id="k9XorKPZrQHirwPCLUAR-13" value="&lt;font style=&quot;font-size: 15px&quot; color=&quot;#666666&quot;&gt;Message Goes Here.&lt;/font&gt;" style="text;html=1;strokeColor=none;fillColor=none;align=center;verticalAlign=middle;whiteSpace=wrap;rounded=0;sketch=0;" parent="gkBaJMHQkPIM5ymTCWlj-1" vertex="1">
          <mxGeometry x="290" y="420" width="150" height="30" as="geometry" />
        </mxCell>
        <mxCell id="k9XorKPZrQHirwPCLUAR-17" value="First Name:" style="text;strokeColor=none;fillColor=none;spacingLeft=4;spacingRight=4;overflow=hidden;rotatable=0;points=[[0,0.5],[1,0.5]];portConstraint=eastwest;fontSize=14;rounded=0;sketch=0;" parent="gkBaJMHQkPIM5ymTCWlj-1" vertex="1">
          <mxGeometry x="160" y="365" width="90" height="25" as="geometry" />
        </mxCell>
        <mxCell id="9k8f8SnNCGVNmt7tcOer-0" value="" style="rounded=0;whiteSpace=wrap;html=1;" parent="gkBaJMHQkPIM5ymTCWlj-1" vertex="1">
          <mxGeometry x="250" y="370" width="90" height="20" as="geometry" />
        </mxCell>
        <mxCell id="9k8f8SnNCGVNmt7tcOer-1" value="First Name" style="text;html=1;strokeColor=none;fillColor=none;align=center;verticalAlign=middle;whiteSpace=wrap;rounded=0;sketch=0;fontSize=10;fontColor=#666666;" parent="gkBaJMHQkPIM5ymTCWlj-1" vertex="1">
          <mxGeometry x="250" y="370" width="62" height="15" as="geometry" />
        </mxCell>
        <mxCell id="9k8f8SnNCGVNmt7tcOer-2" value="Last Name:" style="text;strokeColor=none;fillColor=none;spacingLeft=4;spacingRight=4;overflow=hidden;rotatable=0;points=[[0,0.5],[1,0.5]];portConstraint=eastwest;fontSize=14;rounded=0;sketch=0;" parent="gkBaJMHQkPIM5ymTCWlj-1" vertex="1">
          <mxGeometry x="346" y="365" width="87" height="40" as="geometry" />
        </mxCell>
        <mxCell id="9k8f8SnNCGVNmt7tcOer-5" value="Email:" style="text;strokeColor=none;fillColor=none;spacingLeft=4;spacingRight=4;overflow=hidden;rotatable=0;points=[[0,0.5],[1,0.5]];portConstraint=eastwest;fontSize=14;rounded=0;sketch=0;" parent="gkBaJMHQkPIM5ymTCWlj-1" vertex="1">
          <mxGeometry x="520" y="365" width="52" height="45" as="geometry" />
        </mxCell>
        <mxCell id="9k8f8SnNCGVNmt7tcOer-8" value="" style="rounded=0;whiteSpace=wrap;html=1;" parent="gkBaJMHQkPIM5ymTCWlj-1" vertex="1">
          <mxGeometry x="433" y="370" width="87" height="20" as="geometry" />
        </mxCell>
        <mxCell id="9k8f8SnNCGVNmt7tcOer-9" value="" style="rounded=0;whiteSpace=wrap;html=1;" parent="gkBaJMHQkPIM5ymTCWlj-1" vertex="1">
          <mxGeometry x="570" y="370" width="90" height="20" as="geometry" />
        </mxCell>
        <mxCell id="k9XorKPZrQHirwPCLUAR-19" value="&lt;font color=&quot;#4d4d4d&quot; style=&quot;font-size: 10px&quot;&gt;Last Name&lt;/font&gt;" style="text;html=1;strokeColor=none;fillColor=none;align=center;verticalAlign=middle;whiteSpace=wrap;rounded=0;sketch=0;fontSize=14;" parent="gkBaJMHQkPIM5ymTCWlj-1" vertex="1">
          <mxGeometry x="420" y="365" width="80" height="20" as="geometry" />
        </mxCell>
        <mxCell id="k9XorKPZrQHirwPCLUAR-20" value="&lt;font color=&quot;#666666&quot; style=&quot;font-size: 10px&quot;&gt;Email&lt;/font&gt;" style="text;html=1;strokeColor=none;fillColor=none;align=center;verticalAlign=middle;whiteSpace=wrap;rounded=0;sketch=0;fontSize=14;" parent="gkBaJMHQkPIM5ymTCWlj-1" vertex="1">
          <mxGeometry x="554" y="365" width="70" height="20" as="geometry" />
        </mxCell>
      </root>
    </mxGraphModel>
  </diagram>
  <diagram id="e11m1GIzAvZ-CmjOm_AQ" name="Contact - Web">
    <mxGraphModel dx="2000" dy="1195" grid="1" gridSize="10" guides="1" tooltips="1" connect="1" arrows="1" fold="1" page="1" pageScale="1" pageWidth="850" pageHeight="1100" math="0" shadow="0">
      <root>
        <mxCell id="qrdWyy1KUxckLfu2nOEx-0" />
        <mxCell id="qrdWyy1KUxckLfu2nOEx-1" parent="qrdWyy1KUxckLfu2nOEx-0" />
        <mxCell id="bjmkvY3o6tVjfK6yFG4H-0" value="" style="rounded=0;whiteSpace=wrap;html=1;sketch=0;" vertex="1" parent="qrdWyy1KUxckLfu2nOEx-1">
          <mxGeometry x="50" y="30" width="760" height="60" as="geometry" />
        </mxCell>
        <mxCell id="rVfJoGb31-d84H_E3ix--0" value="" style="rounded=0;whiteSpace=wrap;html=1;sketch=0;" vertex="1" parent="qrdWyy1KUxckLfu2nOEx-1">
          <mxGeometry x="50" y="1020" width="760" height="60" as="geometry" />
        </mxCell>
        <mxCell id="NHKum-P8SBqnnVLaLlLB-0" value="&lt;font style=&quot;font-size: 15px&quot;&gt;LinkedIn&lt;/font&gt;" style="text;html=1;strokeColor=none;fillColor=none;align=center;verticalAlign=middle;whiteSpace=wrap;rounded=0;sketch=0;" vertex="1" parent="qrdWyy1KUxckLfu2nOEx-1">
          <mxGeometry x="323" y="1022.5" width="70" height="55" as="geometry" />
        </mxCell>
        <mxCell id="sxAETGGktGGTXOplc4Qd-0" value="&lt;font style=&quot;font-size: 15px&quot;&gt;GitHub&lt;/font&gt;" style="text;html=1;strokeColor=none;fillColor=none;align=center;verticalAlign=middle;whiteSpace=wrap;rounded=0;sketch=0;" vertex="1" parent="qrdWyy1KUxckLfu2nOEx-1">
          <mxGeometry x="393" y="1022.5" width="65" height="55" as="geometry" />
        </mxCell>
        <mxCell id="rDM26NR1sZ1be6Xoc6g_-0" value="&lt;font style=&quot;font-size: 15px&quot;&gt;Email&lt;/font&gt;" style="text;html=1;strokeColor=none;fillColor=none;align=center;verticalAlign=middle;whiteSpace=wrap;rounded=0;sketch=0;" vertex="1" parent="qrdWyy1KUxckLfu2nOEx-1">
          <mxGeometry x="450" y="1022.5" width="70" height="55" as="geometry" />
        </mxCell>
        <mxCell id="8nCVLT4zRwODqNqkOQPf-0" value="&lt;font style=&quot;font-size: 15px&quot;&gt;LOGO&lt;/font&gt;" style="text;html=1;strokeColor=none;fillColor=none;align=center;verticalAlign=middle;whiteSpace=wrap;rounded=0;sketch=0;" vertex="1" parent="qrdWyy1KUxckLfu2nOEx-1">
          <mxGeometry x="60" y="35" width="60" height="50" as="geometry" />
        </mxCell>
        <UserObject label="About" link="https://www.draw.io" id="0_dfJWMyFfqUSK3wxG0F-0">
          <mxCell style="text;html=1;strokeColor=none;fillColor=none;whiteSpace=wrap;align=center;verticalAlign=middle;fontColor=#0000EE;fontStyle=4;rounded=0;sketch=0;fontSize=16;" vertex="1" parent="qrdWyy1KUxckLfu2nOEx-1">
            <mxGeometry x="624" y="32.5" width="60" height="55" as="geometry" />
          </mxCell>
        </UserObject>
        <UserObject label="Profile" id="2zjhRJmTfV0sNKRcMKIp-0">
          <mxCell style="text;html=1;strokeColor=none;fillColor=none;whiteSpace=wrap;align=center;verticalAlign=middle;fontColor=#0000EE;fontStyle=4;rounded=0;sketch=0;fontSize=16;" vertex="1" parent="qrdWyy1KUxckLfu2nOEx-1">
            <mxGeometry x="688" y="32.5" width="60" height="55" as="geometry" />
          </mxCell>
        </UserObject>
        <UserObject label="Error" id="LRk5iDp2ZSCl8YyvKHsM-0">
          <mxCell style="text;html=1;strokeColor=none;fillColor=none;whiteSpace=wrap;align=center;verticalAlign=middle;fontColor=#0000EE;fontStyle=4;rounded=0;sketch=0;fontSize=16;" vertex="1" parent="qrdWyy1KUxckLfu2nOEx-1">
            <mxGeometry x="745" y="32.5" width="60" height="55" as="geometry" />
          </mxCell>
        </UserObject>
        <mxCell id="eexdjloGIoU5p4PQAHZ3-0" value="Contact Me" style="text;strokeColor=none;fillColor=none;html=1;fontSize=27;fontStyle=1;verticalAlign=middle;align=center;rounded=0;sketch=0;" vertex="1" parent="qrdWyy1KUxckLfu2nOEx-1">
          <mxGeometry x="345" y="170" width="160" height="40" as="geometry" />
        </mxCell>
        <mxCell id="uxZh2gwXUYUNBVZiP86j-0" value="" style="rounded=0;whiteSpace=wrap;html=1;sketch=0;fontSize=27;" vertex="1" parent="qrdWyy1KUxckLfu2nOEx-1">
          <mxGeometry x="130" y="250" width="590" height="370" as="geometry" />
        </mxCell>
        <mxCell id="qJJ5N-VrBhR8ZgIU3vXw-0" value="Help on projects or freelance..." style="text;html=1;strokeColor=none;fillColor=none;align=center;verticalAlign=middle;whiteSpace=wrap;rounded=0;sketch=0;fontSize=20;" vertex="1" parent="qrdWyy1KUxckLfu2nOEx-1">
          <mxGeometry x="160" y="280" width="292" height="20" as="geometry" />
        </mxCell>
        <mxCell id="w7-QIVfa5EZnwbAQnnfJ-0" value="Reach out: ..." style="text;html=1;strokeColor=none;fillColor=none;align=center;verticalAlign=middle;whiteSpace=wrap;rounded=0;sketch=0;fontSize=20;" vertex="1" parent="qrdWyy1KUxckLfu2nOEx-1">
          <mxGeometry x="160" y="320" width="140" height="20" as="geometry" />
        </mxCell>
        <mxCell id="jLMm7aH41I_p8iI9gZVI-0" value="" style="rounded=1;whiteSpace=wrap;html=1;sketch=0;fontSize=20;" vertex="1" parent="qrdWyy1KUxckLfu2nOEx-1">
          <mxGeometry x="380" y="580" width="90" height="20" as="geometry" />
        </mxCell>
        <mxCell id="Icbv_8x2SYOzj-RddEPy-0" value="&lt;font style=&quot;font-size: 12px&quot; color=&quot;#666666&quot;&gt;Send Message&lt;/font&gt;" style="text;html=1;strokeColor=none;fillColor=none;align=center;verticalAlign=middle;whiteSpace=wrap;rounded=0;sketch=0;fontSize=10;" vertex="1" parent="qrdWyy1KUxckLfu2nOEx-1">
          <mxGeometry x="377" y="570" width="97" height="40" as="geometry" />
        </mxCell>
        <mxCell id="NyOvSCXLMBZDfZFD0PgO-0" value="" style="rounded=0;whiteSpace=wrap;html=1;sketch=0;fontSize=20;" vertex="1" parent="qrdWyy1KUxckLfu2nOEx-1">
          <mxGeometry x="295" y="465" width="260" height="100" as="geometry" />
        </mxCell>
        <mxCell id="httPY9n8roNtXolR82x4-0" value="&lt;font style=&quot;font-size: 15px&quot; color=&quot;#666666&quot;&gt;Message Goes Here.&lt;/font&gt;" style="text;html=1;strokeColor=none;fillColor=none;align=center;verticalAlign=middle;whiteSpace=wrap;rounded=0;sketch=0;" vertex="1" parent="qrdWyy1KUxckLfu2nOEx-1">
          <mxGeometry x="300" y="467.5" width="150" height="30" as="geometry" />
        </mxCell>
        <mxCell id="X8OGl1ElUholK1NApIhK-0" value="First Name:" style="text;strokeColor=none;fillColor=none;spacingLeft=4;spacingRight=4;overflow=hidden;rotatable=0;points=[[0,0.5],[1,0.5]];portConstraint=eastwest;fontSize=14;rounded=0;sketch=0;" vertex="1" parent="qrdWyy1KUxckLfu2nOEx-1">
          <mxGeometry x="312" y="345" width="90" height="25" as="geometry" />
        </mxCell>
        <mxCell id="3ncnyxbpZI5VlKII_dk3-0" value="" style="rounded=0;whiteSpace=wrap;html=1;" vertex="1" parent="qrdWyy1KUxckLfu2nOEx-1">
          <mxGeometry x="412.5" y="350" width="90" height="20" as="geometry" />
        </mxCell>
        <mxCell id="VTKgd_3mVib-eZW9lIwn-0" value="First Name" style="text;html=1;strokeColor=none;fillColor=none;align=center;verticalAlign=middle;whiteSpace=wrap;rounded=0;sketch=0;fontSize=10;fontColor=#666666;" vertex="1" parent="qrdWyy1KUxckLfu2nOEx-1">
          <mxGeometry x="417" y="350" width="62" height="15" as="geometry" />
        </mxCell>
        <mxCell id="137NZoMcEhq-vRW82jNq-0" value="Last Name:" style="text;strokeColor=none;fillColor=none;spacingLeft=4;spacingRight=4;overflow=hidden;rotatable=0;points=[[0,0.5],[1,0.5]];portConstraint=eastwest;fontSize=14;rounded=0;sketch=0;" vertex="1" parent="qrdWyy1KUxckLfu2nOEx-1">
          <mxGeometry x="312" y="382.5" width="87" height="40" as="geometry" />
        </mxCell>
        <mxCell id="QHlgSGO-uMwdWRO-Sopi-0" value="" style="rounded=0;whiteSpace=wrap;html=1;" vertex="1" parent="qrdWyy1KUxckLfu2nOEx-1">
          <mxGeometry x="410" y="385" width="95" height="20" as="geometry" />
        </mxCell>
        <mxCell id="At3dlFUv4fMSuSx2SJ3V-0" value="&lt;font color=&quot;#4d4d4d&quot; style=&quot;font-size: 10px&quot;&gt;Last Name&lt;/font&gt;" style="text;html=1;strokeColor=none;fillColor=none;align=center;verticalAlign=middle;whiteSpace=wrap;rounded=0;sketch=0;fontSize=14;" vertex="1" parent="qrdWyy1KUxckLfu2nOEx-1">
          <mxGeometry x="399" y="382.5" width="80" height="20" as="geometry" />
        </mxCell>
        <mxCell id="uZ8iMvNVuwGSccc5hOva-0" value="" style="rounded=0;whiteSpace=wrap;html=1;" vertex="1" parent="qrdWyy1KUxckLfu2nOEx-1">
          <mxGeometry x="410" y="425" width="90" height="20" as="geometry" />
        </mxCell>
        <mxCell id="am2t2231sUJ1izqRvMmG-0" value="&lt;font color=&quot;#666666&quot; style=&quot;font-size: 10px&quot;&gt;Email&lt;/font&gt;" style="text;html=1;strokeColor=none;fillColor=none;align=center;verticalAlign=middle;whiteSpace=wrap;rounded=0;sketch=0;fontSize=14;" vertex="1" parent="qrdWyy1KUxckLfu2nOEx-1">
          <mxGeometry x="395" y="422.5" width="70" height="20" as="geometry" />
        </mxCell>
        <mxCell id="CqmeeGxNr1-wb5xS9dY8-0" value="Email:" style="text;strokeColor=none;fillColor=none;spacingLeft=4;spacingRight=4;overflow=hidden;rotatable=0;points=[[0,0.5],[1,0.5]];portConstraint=eastwest;fontSize=14;rounded=0;sketch=0;" vertex="1" parent="qrdWyy1KUxckLfu2nOEx-1">
          <mxGeometry x="341" y="422.5" width="52" height="45" as="geometry" />
        </mxCell>
      </root>
    </mxGraphModel>
  </diagram>
  <diagram id="UXKJgcOdYqPPJLNO4Yrg" name="Error">
    <mxGraphModel dx="1426" dy="835" grid="1" gridSize="10" guides="1" tooltips="1" connect="1" arrows="1" fold="1" page="1" pageScale="1" pageWidth="850" pageHeight="1100" math="0" shadow="0">
      <root>
        <mxCell id="OVcsqQI-S_O61wdPcTZF-0" />
        <mxCell id="OVcsqQI-S_O61wdPcTZF-1" parent="OVcsqQI-S_O61wdPcTZF-0" />
        <mxCell id="OVcsqQI-S_O61wdPcTZF-2" value="" style="rounded=0;whiteSpace=wrap;html=1;sketch=0;" parent="OVcsqQI-S_O61wdPcTZF-1" vertex="1">
          <mxGeometry x="50" y="30" width="760" height="60" as="geometry" />
        </mxCell>
        <mxCell id="NJCogwizkXyjbFtbDAi1-0" value="" style="rounded=0;whiteSpace=wrap;html=1;sketch=0;" parent="OVcsqQI-S_O61wdPcTZF-1" vertex="1">
          <mxGeometry x="50" y="1020" width="760" height="60" as="geometry" />
        </mxCell>
        <mxCell id="Ijv89WrkurQ3flpIBiZB-0" value="&lt;font style=&quot;font-size: 15px&quot;&gt;LinkedIn&lt;/font&gt;" style="text;html=1;strokeColor=none;fillColor=none;align=center;verticalAlign=middle;whiteSpace=wrap;rounded=0;sketch=0;" parent="OVcsqQI-S_O61wdPcTZF-1" vertex="1">
          <mxGeometry x="323" y="1022.5" width="70" height="55" as="geometry" />
        </mxCell>
        <mxCell id="wGj9kJM1StkKGONkh7nP-0" value="&lt;font style=&quot;font-size: 15px&quot;&gt;GitHub&lt;/font&gt;" style="text;html=1;strokeColor=none;fillColor=none;align=center;verticalAlign=middle;whiteSpace=wrap;rounded=0;sketch=0;" parent="OVcsqQI-S_O61wdPcTZF-1" vertex="1">
          <mxGeometry x="393" y="1022.5" width="65" height="55" as="geometry" />
        </mxCell>
        <mxCell id="1OcmPgEseRecf8Q9M_Y1-0" value="&lt;font style=&quot;font-size: 15px&quot;&gt;Email&lt;/font&gt;" style="text;html=1;strokeColor=none;fillColor=none;align=center;verticalAlign=middle;whiteSpace=wrap;rounded=0;sketch=0;" parent="OVcsqQI-S_O61wdPcTZF-1" vertex="1">
          <mxGeometry x="450" y="1022.5" width="70" height="55" as="geometry" />
        </mxCell>
        <mxCell id="chOjokncvA54CeAVa_VO-0" value="" style="ellipse;whiteSpace=wrap;html=1;aspect=fixed;rounded=0;sketch=0;fontSize=18;" parent="OVcsqQI-S_O61wdPcTZF-1" vertex="1">
          <mxGeometry x="305" y="280" width="240" height="240" as="geometry" />
        </mxCell>
        <UserObject label="Contact" id="Jew-dOYX6z5lIcy4aFDH-0">
          <mxCell style="text;html=1;strokeColor=none;fillColor=none;whiteSpace=wrap;align=center;verticalAlign=middle;fontColor=#0000EE;fontStyle=4;rounded=0;sketch=0;fontSize=16;" parent="OVcsqQI-S_O61wdPcTZF-1" vertex="1">
            <mxGeometry x="688" y="32.5" width="60" height="55" as="geometry" />
          </mxCell>
        </UserObject>
        <UserObject label="Error" id="iAOWGZfpd-pSxXsO3Bi9-0">
          <mxCell style="text;html=1;strokeColor=none;fillColor=none;whiteSpace=wrap;align=center;verticalAlign=middle;fontColor=#0000EE;fontStyle=4;rounded=0;sketch=0;fontSize=16;" parent="OVcsqQI-S_O61wdPcTZF-1" vertex="1">
            <mxGeometry x="745" y="32.5" width="60" height="55" as="geometry" />
          </mxCell>
        </UserObject>
        <UserObject label="Profile" link="https://www.draw.io" id="wR5r2P7EigIttHZsGgk8-0">
          <mxCell style="text;html=1;strokeColor=none;fillColor=none;whiteSpace=wrap;align=center;verticalAlign=middle;fontColor=#0000EE;fontStyle=4;rounded=0;sketch=0;fontSize=16;" parent="OVcsqQI-S_O61wdPcTZF-1" vertex="1">
            <mxGeometry x="624" y="32.5" width="60" height="55" as="geometry" />
          </mxCell>
        </UserObject>
        <mxCell id="wR5r2P7EigIttHZsGgk8-1" value="" style="endArrow=none;html=1;fontSize=16;exitX=1;exitY=0;exitDx=0;exitDy=0;entryX=0;entryY=1;entryDx=0;entryDy=0;" parent="OVcsqQI-S_O61wdPcTZF-1" source="chOjokncvA54CeAVa_VO-0" target="chOjokncvA54CeAVa_VO-0" edge="1">
          <mxGeometry width="50" height="50" relative="1" as="geometry">
            <mxPoint x="390" y="620" as="sourcePoint" />
            <mxPoint x="440" y="570" as="targetPoint" />
          </mxGeometry>
        </mxCell>
        <mxCell id="wR5r2P7EigIttHZsGgk8-2" value="" style="endArrow=none;html=1;fontSize=16;exitX=0;exitY=0;exitDx=0;exitDy=0;entryX=1;entryY=1;entryDx=0;entryDy=0;" parent="OVcsqQI-S_O61wdPcTZF-1" source="chOjokncvA54CeAVa_VO-0" target="chOjokncvA54CeAVa_VO-0" edge="1">
          <mxGeometry width="50" height="50" relative="1" as="geometry">
            <mxPoint x="390" y="620" as="sourcePoint" />
            <mxPoint x="440" y="570" as="targetPoint" />
          </mxGeometry>
        </mxCell>
        <mxCell id="wR5r2P7EigIttHZsGgk8-3" value="Error Page" style="text;strokeColor=none;fillColor=none;html=1;fontSize=24;fontStyle=1;verticalAlign=middle;align=center;rounded=0;sketch=0;" parent="OVcsqQI-S_O61wdPcTZF-1" vertex="1">
          <mxGeometry x="375" y="570" width="100" height="40" as="geometry" />
        </mxCell>
      </root>
    </mxGraphModel>
  </diagram>
</mxfile>
